<svg viewBox="0 0 24 24" xmlns="http://www.w3.org/2000/svg" id="Spirits--Streamline-Ultimate">
  <desc>
    Spirits Streamline Icon: https://streamlinehq.com
  </desc>
  <path d="M4.178 19.991 12 9.5l7.815 10.385" fill="none" stroke="#0f1e2e" stroke-linecap="round" stroke-linejoin="round" stroke-width="1"></path>
  <path d="M2.839 9.5 12 20.5l9.161 -11" fill="none" stroke="#0f1e2e" stroke-linecap="round" stroke-linejoin="round" stroke-width="1"></path>
  <path d="m2.839 9.5 18.322 0" fill="none" stroke="#0f1e2e" stroke-linecap="round" stroke-linejoin="round" stroke-width="1"></path>
  <path d="m4.446 20.5 15.108 0" fill="none" stroke="#0f1e2e" stroke-linecap="round" stroke-linejoin="round" stroke-width="1"></path>
  <path d="M14 3.5v1.617a1.724 1.724 0 0 0 0.953 1.543l5.126 2a3.441 3.441 0 0 1 1.915 3.254 20.85 20.85 0 0 1 -3.743 10.792 1.731 1.731 0 0 1 -1.453 0.8H7.2a1.731 1.731 0 0 1 -1.453 -0.8 20.85 20.85 0 0 1 -3.741 -10.793 3.441 3.441 0 0 1 1.915 -3.254l5.126 -2A1.724 1.724 0 0 0 10 5.117V3.5" fill="none" stroke="#0f1e2e" stroke-linecap="round" stroke-linejoin="round" stroke-width="1"></path>
  <path d="M15.811 0.915A1 1 0 0 0 15 0.5H9a1 1 0 0 0 -0.949 1.316l0.334 1a1 1 0 0 0 0.948 0.684h5.334a1 1 0 0 0 0.948 -0.684l0.334 -1a1 1 0 0 0 -0.138 -0.901Z" fill="none" stroke="#0f1e2e" stroke-linecap="round" stroke-linejoin="round" stroke-width="1"></path>
</svg>