<svg xmlns="http://www.w3.org/2000/svg" viewBox="0 0 24 24" id="Spicy-Tabasco-Sauce--Streamline-Ultimate" height="24" width="24">
  <desc>
    Spicy Tabasco Sauce Streamline Icon: https://streamlinehq.com
  </desc>
  <g>
    <path d="M15.59 8.6A3.05 3.05 0 0 1 14 6V4a0.5 0.5 0 0 0 -0.5 -0.5h-3a0.5 0.5 0 0 0 -0.5 0.5v2a3.05 3.05 0 0 1 -1.59 2.6A4 4 0 0 0 6.5 12v9.5A2.5 2.5 0 0 0 9 24h6a2.5 2.5 0 0 0 2.5 -2.5V12a4 4 0 0 0 -1.91 -3.4Zm-7.3 6.48 3 -3.27a1 1 0 0 1 1.48 0l3 3.27a1 1 0 0 1 0 1.34l-3 3.27a1 1 0 0 1 -1.48 0l-3 -3.27a1 1 0 0 1 0 -1.34Z" fill="#000000" stroke-width="1"></path>
    <path d="M13.75 15.75A0.76 0.76 0 0 0 13 15h-2a0.75 0.75 0 0 0 0 1.5h2a0.76 0.76 0 0 0 0.75 -0.75Z" fill="#000000" stroke-width="1"></path>
    <path d="M10.5 2h3a1 1 0 0 0 0 -2h-3a1 1 0 0 0 0 2Z" fill="#000000" stroke-width="1"></path>
  </g>
</svg>