<svg xmlns="http://www.w3.org/2000/svg" viewBox="0 0 24 24">
  <path d="M9.75 18.5V6A5.5 5.5 0 0 0 4.25 0.5" fill="none" stroke="#0f1e2e" stroke-linecap="round" stroke-linejoin="round" stroke-width="1"></path>
  <path d="M9.75 18.5a5 5 0 0 0 10 0V18" fill="none" stroke="#0f1e2e" stroke-linecap="round" stroke-linejoin="round" stroke-width="1"></path>
  <path d="M19.75 18c0 -0.828 -2.239 -1.5 -5 -1.5s-5 0.672 -5 1.5c0 0.658 1.423 1.212 3.39 1.413a0.5 0.5 0 0 1 0.366 0.22l0.873 1.31a0.5 0.5 0 0 0 0.8 0.043l1.193 -1.433a0.5 0.5 0 0 1 0.321 -0.176c1.793 -0.227 3.057 -0.756 3.057 -1.377Z" fill="none" stroke="#0f1e2e" stroke-linecap="round" stroke-linejoin="round" stroke-width="1"></path>
</svg>
