<svg xmlns="http://www.w3.org/2000/svg" viewBox="0 0 24 24" id="Chef-Gear-Butter--Streamline-Ultimate">
  <desc>
    Chef Gear Butter Streamline Icon: https://streamlinehq.com
  </desc>
  <g>
    <g>
      <path d="M11.5 9.5h8s1 0 1 1v4s0 1 -1 1h-8s-1 0 -1 -1v-4s0 -1 1 -1" fill="none" stroke="#0f1e2e" stroke-linecap="round" stroke-linejoin="round" stroke-width="1"></path>
      <path d="M10.5 11.5h-2a1 1 0 0 1 -1 -1v-4a1 1 0 0 1 1 -1h8a1 1 0 0 1 1 1v3" fill="none" stroke="#0f1e2e" stroke-linecap="round" stroke-linejoin="round" stroke-width="1"></path>
    </g>
    <path d="M3.83 10.72A2 2 0 0 1 5.36 13a2 2 0 0 1 -2.62 0.84 6 6 0 0 1 -2.13 -2 0.53 0.53 0 0 1 -0.08 -0.5A0.54 0.54 0 0 1 0.9 11a6.08 6.08 0 0 1 2.93 -0.28Z" fill="none" stroke="#0f1e2e" stroke-linecap="round" stroke-linejoin="round" stroke-width="1"></path>
    <path d="M3.72 14.55a2 2 0 0 1 2.65 -0.71 2 2 0 0 1 -0.06 2.75A6 6 0 0 1 3.71 18a0.53 0.53 0 0 1 -0.5 -0.09 0.56 0.56 0 0 1 -0.21 -0.52 6 6 0 0 1 0.72 -2.84Z" fill="none" stroke="#0f1e2e" stroke-linecap="round" stroke-linejoin="round" stroke-width="1"></path>
    <path d="M4 10.78a18.27 18.27 0 0 1 3.5 -0.92" fill="none" stroke="#0f1e2e" stroke-linecap="round" stroke-linejoin="round" stroke-width="1"></path>
    <path d="M3.05 16.83a4.43 4.43 0 0 1 -2.46 -2.27" fill="none" stroke="#0f1e2e" stroke-linecap="round" stroke-linejoin="round" stroke-width="1"></path>
    <path d="M20.5 11c1.86 0.8 3 1.86 3 3 0 2.49 -5.15 4.5 -11.5 4.5a28.5 28.5 0 0 1 -4.36 -0.33" fill="none" stroke="#0f1e2e" stroke-linecap="round" stroke-linejoin="round" stroke-width="1"></path>
    <path d="M8.5 14h0c-1 -0.95 -2 -0.7 -3 -0.44" fill="none" stroke="#0f1e2e" stroke-linecap="round" stroke-linejoin="round" stroke-width="1"></path>
    <path d="m10.5 5.5 0 2" fill="none" stroke="#0f1e2e" stroke-linecap="round" stroke-linejoin="round" stroke-width="1"></path>
    <path d="m14.5 5.5 0 2" fill="none" stroke="#0f1e2e" stroke-linecap="round" stroke-linejoin="round" stroke-width="1"></path>
    <path d="m13.5 9.5 0 3" fill="none" stroke="#0f1e2e" stroke-linecap="round" stroke-linejoin="round" stroke-width="1"></path>
    <path d="m17.5 9.5 0 3" fill="none" stroke="#0f1e2e" stroke-linecap="round" stroke-linejoin="round" stroke-width="1"></path>
  </g>
</svg>