<svg viewBox="0 0 24 24" xmlns="http://www.w3.org/2000/svg" id="Coffee-Cup-Hot--Streamline-Ultimate">
  <desc>
    Coffee Cup Hot Streamline Icon: https://streamlinehq.com
  </desc>
  <path d="M8 6.157a2 2 0 0 1 0 -2.829A2 2 0 0 0 8 0.5" fill="none" stroke="#0f1e2e" stroke-linecap="round" stroke-linejoin="round" stroke-width="1"></path>
  <path d="M12 6.157a2 2 0 0 1 0 -2.829A2 2 0 0 0 12 0.5" fill="none" stroke="#0f1e2e" stroke-linecap="round" stroke-linejoin="round" stroke-width="1"></path>
  <path d="M16 6.157a2 2 0 0 1 0 -2.829A2 2 0 0 0 16 0.5" fill="none" stroke="#0f1e2e" stroke-linecap="round" stroke-linejoin="round" stroke-width="1"></path>
  <path d="M5.5 11.542a6.5 3 0 1 0 13 0 6.5 3 0 1 0 -13 0Z" fill="none" stroke="#0f1e2e" stroke-linecap="round" stroke-linejoin="round" stroke-width="1"></path>
  <path d="M18.5 11.542a17.914 17.914 0 0 1 -1.165 6.558 1.992 1.992 0 0 1 -0.53 0.763A7.121 7.121 0 0 1 12 20.542a7.121 7.121 0 0 1 -4.8 -1.679 1.981 1.981 0 0 1 -0.53 -0.763 17.9 17.9 0 0 1 -1.17 -6.558" fill="none" stroke="#0f1e2e" stroke-linecap="round" stroke-linejoin="round" stroke-width="1"></path>
  <path d="M18.219 14.886C19.933 15.8 21 17.079 21 18.5c0 2.761 -4.029 5 -9 5s-9 -2.239 -9 -5c0 -1.421 1.067 -2.7 2.78 -3.614" fill="none" stroke="#0f1e2e" stroke-linecap="round" stroke-linejoin="round" stroke-width="1"></path>
  <path d="M7.526 13.718C7.24 12.516 9.353 11.5 12 11.5s4.76 1.016 4.474 2.218" fill="none" stroke="#0f1e2e" stroke-linecap="round" stroke-linejoin="round" stroke-width="1"></path>
</svg>