<svg xmlns="http://www.w3.org/2000/svg" viewBox="0 0 24 24">
  <path d="M16.583 11.611 21.29 1.239a1.142 1.142 0 1 1 2.137 0.805l-2.646 9.237" fill="none" stroke="#0f1e2e" stroke-linecap="round" stroke-linejoin="round" stroke-width="1"></path>
  <path d="M4.5 12.5a2 2 0 0 1 4 0" fill="none" stroke="#0f1e2e" stroke-linecap="round" stroke-linejoin="round" stroke-width="1"></path>
  <path d="M13 14.25a1.5 1.5 0 0 1 3 0" fill="none" stroke="#0f1e2e" stroke-linecap="round" stroke-linejoin="round" stroke-width="1"></path>
  <path d="M10.5 10.5a1 1 0 0 1 2 0" fill="none" stroke="#0f1e2e" stroke-linecap="round" stroke-linejoin="round" stroke-width="1"></path>
  <path d="M0.5 11.5V14c0 5.247 4.5 9.5 11.5 9.5s11.5 -4.253 11.5 -9.5v-2.5" fill="none" stroke="#0f1e2e" stroke-linecap="round" stroke-linejoin="round" stroke-width="1"></path>
  <path d="M16.5 6.9a24.859 24.859 0 0 0 -4.5 -0.4C5.649 6.5 0.5 8.739 0.5 11.5s5.149 5 11.5 5 11.5 -2.239 11.5 -5a2.36 2.36 0 0 0 -0.261 -1.059" fill="none" stroke="#0f1e2e" stroke-linecap="round" stroke-linejoin="round" stroke-width="1"></path>
</svg>
