<svg xmlns="http://www.w3.org/2000/svg" fill="none" viewBox="0 0 25 25" id="Breakfast-Cereal--Streamline-Ultimate">
  <desc>
    Breakfast Cereal Streamline Icon: https://streamlinehq.com
  </desc>
  <path fill="#ffbfc5" d="M0.5 11.521v2.5c0 5.247 4.5 9.5 11.5 9.5s11.5 -4.253 11.5 -9.5v-2.5" stroke-width="1"></path>
  <path fill="#ff808c" d="M12 19.2c-6.169 0 -10.392 -3.3 -11.308 -7.68H0.5v2.5c0 5.247 4.5 9.5 11.5 9.5s11.5 -4.253 11.5 -9.5v-2.5h-0.192C22.392 15.9 18.169 19.2 12 19.2Z" stroke-width="1"></path>
  <path stroke="#191919" stroke-linecap="round" stroke-linejoin="round" d="M0.5 11.521v2.5c0 5.247 4.5 9.5 11.5 9.5s11.5 -4.253 11.5 -9.5v-2.5" stroke-width="1"></path>
  <path fill="#ffffff" d="M16.5 6.921a24.876 24.876 0 0 0 -4.5 -0.4c-6.351 0 -11.5 2.239 -11.5 5s5.149 5 11.5 5 11.5 -2.239 11.5 -5a2.367 2.367 0 0 0 -0.261 -1.059" stroke-width="1"></path>
  <path stroke="#191919" stroke-linecap="round" stroke-linejoin="round" d="M16.5 6.921a24.876 24.876 0 0 0 -4.5 -0.4c-6.351 0 -11.5 2.239 -11.5 5s5.149 5 11.5 5 11.5 -2.239 11.5 -5a2.367 2.367 0 0 0 -0.261 -1.059" stroke-width="1"></path>
  <path fill="#ffdda1" d="M21 13.271a2.091 2.091 0 0 1 -0.61 1.41 20.49 20.49 0 0 1 -8.39 1.59 20.49 20.49 0 0 1 -8.39 -1.59 2.137 2.137 0 0 1 -0.61 -1.41c0 -2.21 4.31 -4 9 -4s9 1.79 9 4Z" stroke-width="1"></path>
  <path fill="#ffbc44" d="M12 16.519a22.11 22.11 0 0 0 7.2 -1.114c-0.905 -1.667 -3.782 -2.886 -7.2 -2.886s-6.294 1.219 -7.2 2.886a22.11 22.11 0 0 0 7.2 1.114Z" stroke-width="1"></path>
  <path fill="#e3e3e3" d="M16.583 11.632 21.29 1.26a1.142 1.142 0 1 1 2.137 0.805L20.781 11.3" stroke-width="1"></path>
  <path stroke="#191919" stroke-linecap="round" stroke-linejoin="round" d="M16.583 11.632 21.29 1.26a1.142 1.142 0 1 1 2.137 0.805L20.781 11.3" stroke-width="1"></path>
  <path stroke="#191919" stroke-linecap="round" stroke-linejoin="round" d="M4.5 12.521a2 2 0 0 1 4 0" stroke-width="1"></path>
  <path stroke="#191919" stroke-linecap="round" stroke-linejoin="round" d="M13 14.271a1.5 1.5 0 1 1 3 0" stroke-width="1"></path>
  <path stroke="#191919" stroke-linecap="round" stroke-linejoin="round" d="M10.5 10.521a1 1 0 0 1 2 0" stroke-width="1"></path>
  <path stroke="#191919" stroke-linecap="round" stroke-linejoin="round" d="M16.5 6.921a24.876 24.876 0 0 0 -4.5 -0.4c-6.351 0 -11.5 2.239 -11.5 5s5.149 5 11.5 5 11.5 -2.239 11.5 -5a2.367 2.367 0 0 0 -0.261 -1.059" stroke-width="1"></path>
</svg>