<svg viewBox="0 0 24 24" xmlns="http://www.w3.org/2000/svg" id="Chocolate-Bar--Streamline-Ultimate">
  <desc>
    Chocolate Bar Streamline Icon: https://streamlinehq.com
  </desc>
  <path d="M19.5 21.5a2 2 0 0 1 -2 2h-11a2 2 0 0 1 -2 -2V13a0.5 0.5 0 0 1 0.5 -0.5h14a0.5 0.5 0 0 1 0.5 0.5Z" fill="none" stroke="#0f1e2e" stroke-linecap="round" stroke-linejoin="round" stroke-width="1"></path>
  <path d="M18.5 1.5a1 1 0 0 0 -1 -1h-11a1 1 0 0 0 -1 1v11h13Z" fill="none" stroke="#0f1e2e" stroke-linecap="round" stroke-linejoin="round" stroke-width="1"></path>
  <path d="m19.5 13 -1.019 2.711a3 3 0 0 1 -4.288 1.554l-4.517 -2.56" fill="none" stroke="#0f1e2e" stroke-linecap="round" stroke-linejoin="round" stroke-width="1"></path>
  <path d="m12 12.5 0 -12" fill="none" stroke="#0f1e2e" stroke-linecap="round" stroke-linejoin="round" stroke-width="1"></path>
  <path d="m5.5 6.5 13 0" fill="none" stroke="#0f1e2e" stroke-linecap="round" stroke-linejoin="round" stroke-width="1"></path>
  <path d="m5.5 6.5 6.5 -6" fill="none" stroke="#0f1e2e" stroke-linecap="round" stroke-linejoin="round" stroke-width="1"></path>
  <path d="M5.5 12.5 18.195 0.781" fill="none" stroke="#0f1e2e" stroke-linecap="round" stroke-linejoin="round" stroke-width="1"></path>
  <path d="m12 12.5 6.5 -6" fill="none" stroke="#0f1e2e" stroke-linecap="round" stroke-linejoin="round" stroke-width="1"></path>
</svg>