<svg viewBox="0 0 24 24" xmlns="http://www.w3.org/2000/svg" id="Water-Protection-Drop-1--Streamline-Ultimate">
  <desc>
    Water Protection Drop 1 Streamline Icon: https://streamlinehq.com
  </desc>
  <path d="M17.026 11.053a5 5 0 0 1 -10 0c0 -2.271 3.383 -7.572 4.583 -9.382a0.5 0.5 0 0 1 0.834 0c1.201 1.811 4.583 7.111 4.583 9.382Z" fill="none" stroke="#0f1e2e" stroke-linecap="round" stroke-linejoin="round" stroke-width="1"></path>
  <path d="M19.014 17.536a12.173 12.173 0 0 1 -6.988 2.017 12.156 12.156 0 0 1 -7.018 -2.038" fill="none" stroke="#0f1e2e" stroke-linecap="round" stroke-linejoin="round" stroke-width="1"></path>
  <path d="M22.966 19.113a17.554 17.554 0 0 1 -10.94 3.44A17.51 17.51 0 0 1 1.034 19.07" fill="none" stroke="#0f1e2e" stroke-linecap="round" stroke-linejoin="round" stroke-width="1"></path>
</svg>