<svg viewBox="0 0 24 24" xmlns="http://www.w3.org/2000/svg" id="Breakfast-Croissant-2--Streamline-Ultimate">
  <desc>
    Breakfast Croissant 2 Streamline Icon: https://streamlinehq.com
  </desc>
  <path d="M10.048 14.038a5 5 0 0 0 -4.548 4.98v2a1 1 0 0 1 -0.622 0.925C3.883 22.35 0.5 19.235 0.5 15.018a11.494 11.494 0 0 1 5.48 -9.8" fill="none" stroke="#0f1e2e" stroke-linecap="round" stroke-linejoin="round" stroke-width="1"></path>
  <path d="m18.281 4.653 -4.513 9.784a1 1 0 0 1 -0.908 0.581h-1.72a1 1 0 0 1 -0.908 -0.581L5.719 4.653a1.012 1.012 0 0 1 0.494 -1.334 13.521 13.521 0 0 1 11.574 0 1.012 1.012 0 0 1 0.494 1.334Z" fill="none" stroke="#0f1e2e" stroke-linecap="round" stroke-linejoin="round" stroke-width="1"></path>
  <path d="M18.02 5.218a11.494 11.494 0 0 1 5.48 9.8c0 4.151 -3.321 7.357 -4.378 6.925a1 1 0 0 1 -0.622 -0.925v-2a5 5 0 0 0 -4.548 -4.98" fill="none" stroke="#0f1e2e" stroke-linecap="round" stroke-linejoin="round" stroke-width="1"></path>
  <path d="m1.314 10.761 5.429 4.957" fill="none" stroke="#0f1e2e" stroke-linecap="round" stroke-linejoin="round" stroke-width="1"></path>
  <path d="m22.686 10.761 -5.429 4.957" fill="none" stroke="#0f1e2e" stroke-linecap="round" stroke-linejoin="round" stroke-width="1"></path>
</svg>