<svg xmlns="http://www.w3.org/2000/svg" fill="none" viewBox="0 0 24 24" id="Vegetable-Potato--Streamline-Ultimate">
  <desc>
    Vegetable Potato Streamline Icon: https://streamlinehq.com
  </desc>
  <path stroke="#0f1e2e" stroke-linecap="round" stroke-linejoin="round" d="M18.4795 18.4798c4.8417 -4.8418 5.8655 -11.66791 2.2868 -15.24667C17.1875 -0.345638 10.3614 0.678192 5.51964 5.51991 0.677915 10.3616 -0.345913 17.1878 3.23285 20.7665c3.57877 3.5788 10.40495 2.555 15.24665 -2.2867Z" stroke-width="1"></path>
  <path stroke="#0f1e2e" d="M11.6246 6.60303c-0.2071 0 -0.375 -0.1679 -0.375 -0.375 0 -0.20711 0.1679 -0.375 0.375 -0.375" stroke-width="1"></path>
  <path stroke="#0f1e2e" d="M11.6246 6.60303c0.2071 0 0.375 -0.1679 0.375 -0.375 0 -0.20711 -0.1679 -0.375 -0.375 -0.375" stroke-width="1"></path>
  <path stroke="#0f1e2e" d="M14 4.375c-0.2071 0 -0.375 -0.16789 -0.375 -0.375s0.1679 -0.375 0.375 -0.375" stroke-width="1"></path>
  <path stroke="#0f1e2e" d="M14 4.375c0.2071 0 0.375 -0.16789 0.375 -0.375s-0.1679 -0.375 -0.375 -0.375" stroke-width="1"></path>
  <path stroke="#0f1e2e" d="M15.011 8.375c-0.2071 0 -0.375 -0.16789 -0.375 -0.375s0.1679 -0.375 0.375 -0.375" stroke-width="1"></path>
  <path stroke="#0f1e2e" d="M15.011 8.375c0.2071 0 0.375 -0.16789 0.375 -0.375s-0.1679 -0.375 -0.375 -0.375" stroke-width="1"></path>
  <path stroke="#0f1e2e" d="M7.875 17.3281c-0.20711 0 -0.375 -0.1679 -0.375 -0.375s0.16789 -0.375 0.375 -0.375" stroke-width="1"></path>
  <path stroke="#0f1e2e" d="M7.875 17.3281c0.20711 0 0.375 -0.1679 0.375 -0.375s-0.16789 -0.375 -0.375 -0.375" stroke-width="1"></path>
  <path stroke="#0f1e2e" d="M9.75 20.5342c-0.20711 0 -0.375 -0.1679 -0.375 -0.375s0.16789 -0.375 0.375 -0.375" stroke-width="1"></path>
  <path stroke="#0f1e2e" d="M9.75 20.5342c0.20711 0 0.375 -0.1679 0.375 -0.375s-0.16789 -0.375 -0.375 -0.375" stroke-width="1"></path>
  <path stroke="#0f1e2e" stroke-linecap="round" stroke-miterlimit="10" d="M2.151 9.68311c1.41886 1.01849 2.65987 2.26429 3.673 3.68699" stroke-width="1"></path>
  <path stroke="#0f1e2e" stroke-linecap="round" stroke-miterlimit="10" d="M18.186 10.4541c1.4419 1.0344 2.7052 2.2974 3.74 3.739" stroke-width="1"></path>
  <path stroke="#0f1e2e" stroke-linecap="round" stroke-miterlimit="10" d="M7.5 9.68311S11 12.3241 12 14.7051" stroke-width="1"></path>
</svg>