<svg xmlns="http://www.w3.org/2000/svg" fill="none" viewBox="0 0 24 24" id="Animal-Products-Cheese--Streamline-Ultimate">
  <desc>
    Animal Products Cheese Streamline Icon: https://streamlinehq.com
  </desc>
  <path stroke="#0f1e2e" stroke-linecap="round" stroke-linejoin="round" d="M20 14.139c0.8284 0 1.5 -0.6715 1.5 -1.5 0 -0.8284 -0.6716 -1.5 -1.5 -1.5s-1.5 0.6716 -1.5 1.5c0 0.8285 0.6716 1.5 1.5 1.5Z" stroke-width="1"></path>
  <path stroke="#0f1e2e" stroke-linecap="round" stroke-linejoin="round" d="M6 15.139c0.55228 0 1 -0.4477 1 -1 0 -0.5522 -0.44772 -1 -1 -1s-1 0.4478 -1 1c0 0.5523 0.44772 1 1 1Z" stroke-width="1"></path>
  <path stroke="#0f1e2e" stroke-linecap="round" stroke-linejoin="round" d="M11 20.139c1.1046 0 2 -0.8954 2 -2 0 -1.1045 -0.8954 -2 -2 -2 -1.10457 0 -2 0.8955 -2 2 0 1.1046 0.89543 2 2 2Z" stroke-width="1"></path>
  <path stroke="#0f1e2e" stroke-linecap="round" stroke-linejoin="round" d="M23.5 8.49304V19.761c-0.0002 0.2428 -0.0886 0.4772 -0.2489 0.6596 -0.1602 0.1823 -0.3814 0.3001 -0.6221 0.3314l-21 2.74c-0.14106 0.0184 -0.28441 0.0064 -0.42047 -0.035 -0.13607 -0.0415 -0.261731 -0.1115 -0.368588 -0.2054 -0.106856 -0.0939 -0.192453 -0.2095 -0.251074 -0.3391C0.530246 22.7829 0.49995 22.6423 0.5 22.5c-0.000123 -0.2142 0.065623 -0.4234 0.188329 -0.599 0.122707 -0.1757 0.296444 -0.3093 0.497671 -0.383 0.44174 -0.161 0.81261 -0.4726 1.04749 -0.8799 0.23487 -0.4073 0.31873 -0.8844 0.23685 -1.3474 -0.08188 -0.463 -0.32427 -0.8823 -0.6846 -1.1844 -0.36032 -0.302 -0.815554 -0.4675 -1.28574 -0.4673v-5.694c-0.000087 -0.142 0.030102 -0.2825 0.088556 -0.412 0.058454 -0.1295 0.143831 -0.245 0.250444 -0.339L12.709 0.749042c0.1928 -0.169454 0.4435 -0.25825 0.7 -0.248C17.854 0.674042 23.5 3.64204 23.5 8.49304Z" stroke-width="1"></path>
  <path stroke="#0f1e2e" stroke-linecap="round" stroke-linejoin="round" d="M23.5 8.49304 0.616 11.478" stroke-width="1"></path>
  <path stroke="#0f1e2e" d="M13.5 13.389c-0.1381 0 -0.25 -0.1119 -0.25 -0.25 0 -0.138 0.1119 -0.25 0.25 -0.25" stroke-width="1"></path>
  <path stroke="#0f1e2e" d="M13.5 13.389c0.1381 0 0.25 -0.1119 0.25 -0.25 0 -0.138 -0.1119 -0.25 -0.25 -0.25" stroke-width="1"></path>
  <g>
    <path stroke="#0f1e2e" d="M18 17.889c-0.1381 0 -0.25 -0.1119 -0.25 -0.25 0 -0.138 0.1119 -0.25 0.25 -0.25" stroke-width="1"></path>
    <path stroke="#0f1e2e" d="M18 17.889c0.1381 0 0.25 -0.1119 0.25 -0.25 0 -0.138 -0.1119 -0.25 -0.25 -0.25" stroke-width="1"></path>
  </g>
</svg>