<svg viewBox="0 0 24 24" xmlns="http://www.w3.org/2000/svg" id="Fruit-Lemon--Streamline-Ultimate">
  <desc>
    Fruit Lemon Streamline Icon: https://streamlinehq.com
  </desc>
  <path d="M0.5 12a10 10 0 1 0 20 0 10 10 0 1 0 -20 0Z" fill="none" stroke="#0f1e2e" stroke-linecap="round" stroke-linejoin="round" stroke-width="1"></path>
  <path d="m10.5 7.5 0 1.5" fill="none" stroke="#0f1e2e" stroke-linecap="round" stroke-linejoin="round" stroke-width="1"></path>
  <path d="m7.318 8.818 1.061 1.061" fill="none" stroke="#0f1e2e" stroke-linecap="round" stroke-linejoin="round" stroke-width="1"></path>
  <path d="m6 12 1.5 0" fill="none" stroke="#0f1e2e" stroke-linecap="round" stroke-linejoin="round" stroke-width="1"></path>
  <path d="m7.318 15.182 1.061 -1.061" fill="none" stroke="#0f1e2e" stroke-linecap="round" stroke-linejoin="round" stroke-width="1"></path>
  <path d="m10.5 16.5 0 -1.5" fill="none" stroke="#0f1e2e" stroke-linecap="round" stroke-linejoin="round" stroke-width="1"></path>
  <path d="m13.682 15.182 -1.061 -1.061" fill="none" stroke="#0f1e2e" stroke-linecap="round" stroke-linejoin="round" stroke-width="1"></path>
  <path d="m15 12 -1.5 0" fill="none" stroke="#0f1e2e" stroke-linecap="round" stroke-linejoin="round" stroke-width="1"></path>
  <path d="m13.682 8.818 -1.061 1.061" fill="none" stroke="#0f1e2e" stroke-linecap="round" stroke-linejoin="round" stroke-width="1"></path>
  <path d="M10.5 2c7.18 0 13 3.5 13 10s-5.82 10 -13 10" fill="none" stroke="#0f1e2e" stroke-linecap="round" stroke-linejoin="round" stroke-width="1"></path>
</svg>