<svg viewBox="0 0 24 24" xmlns="http://www.w3.org/2000/svg" id="Fruit-Apple--Streamline-Ultimate">
  <desc>
    Fruit Apple Streamline Icon: https://streamlinehq.com
  </desc>
  <path d="M12 22.5c1.5 0 0.5 1 3.5 1s6 -6 6 -10 -2.5 -7 -5.5 -7 -3 1 -4 1 -1 -1 -4 -1 -5.5 3 -5.5 7 3 10 6 10 2 -1 3.5 -1Z" fill="none" stroke="#0f1e2e" stroke-linecap="round" stroke-linejoin="round" stroke-width="1"></path>
  <path d="M12 7.5v-2a2.006 2.006 0 0 0 -2 -2H8" fill="none" stroke="#0f1e2e" stroke-linecap="round" stroke-linejoin="round" stroke-width="1"></path>
  <path d="M14.628 4.918a4.5 4.5 0 0 0 3.829 -3.828 0.517 0.517 0 0 0 -0.585 -0.585 4.5 4.5 0 0 0 -3.828 3.829 0.515 0.515 0 0 0 0.584 0.584Z" fill="none" stroke="#0f1e2e" stroke-linecap="round" stroke-linejoin="round" stroke-width="1"></path>
</svg>