<svg xmlns="http://www.w3.org/2000/svg" viewBox="0 0 24 24" id="Fruit-Fig-Slice--Streamline-Ultimate">
  <desc>
    Fruit Fig Slice Streamline Icon: https://streamlinehq.com
  </desc>
  <defs></defs>
  <path d="M12 0.75c3.014 0 1.467 3.424 2.935 4.891s7.337 3.913 7.337 9.783c0 4.891 -3.913 7.826 -10.272 7.826S1.728 20.315 1.728 15.424c0 -5.87 5.87 -8.315 7.337 -9.783S9.153 0.75 12 0.75Z" fill="none" stroke="#0f1e2e" stroke-linecap="round" stroke-linejoin="round" stroke-width="1"></path>
  <path d="M6.5 14.5a5.5 5.5 0 1 0 11 0 5.5 5.5 0 1 0 -11 0" fill="none" stroke="#0f1e2e" stroke-linecap="round" stroke-linejoin="round" stroke-width="1"></path>
  <path d="m12.009 16.51 0 0.854" fill="none" stroke="#0f1e2e" stroke-linecap="round" stroke-linejoin="round" stroke-width="1"></path>
  <path d="m12.001 11.5 0 0.854" fill="none" stroke="#0f1e2e" stroke-linecap="round" stroke-linejoin="round" stroke-width="1"></path>
  <path d="m9.927 14.436 -0.854 0" fill="none" stroke="#0f1e2e" stroke-linecap="round" stroke-linejoin="round" stroke-width="1"></path>
  <path d="m14.937 14.428 -0.855 0" fill="none" stroke="#0f1e2e" stroke-linecap="round" stroke-linejoin="round" stroke-width="1"></path>
  <path d="m13.477 15.898 0.604 0.604" fill="none" stroke="#0f1e2e" stroke-linecap="round" stroke-linejoin="round" stroke-width="1"></path>
  <path d="m9.929 12.362 0.604 0.604" fill="none" stroke="#0f1e2e" stroke-linecap="round" stroke-linejoin="round" stroke-width="1"></path>
  <path d="m10.538 15.904 -0.604 0.604" fill="none" stroke="#0f1e2e" stroke-linecap="round" stroke-linejoin="round" stroke-width="1"></path>
  <path d="m14.075 12.356 -0.604 0.604" fill="none" stroke="#0f1e2e" stroke-linecap="round" stroke-linejoin="round" stroke-width="1"></path>
</svg>