<svg xmlns="http://www.w3.org/2000/svg" viewBox="-0.25 -0.25 24 24" id="Vegetables-Plate--Streamline-Ultimate">
  <desc>
    Vegetables Plate Streamline Icon: https://streamlinehq.com
  </desc>
  <g>
    <path d="M0.4895833333333333 11.75a11.260416666666666 11.260416666666666 0 1 0 22.520833333333332 0 11.260416666666666 11.260416666666666 0 1 0 -22.520833333333332 0" fill="none" stroke="#f6f3ee" stroke-linecap="round" stroke-linejoin="round" stroke-width="0.5"></path>
    <g>
      <path d="m7.441666666666666 10.388958333333333 -2.05625 2.05625a1.9583333333333333 1.9583333333333333 0 0 0 0.2839583333333333 3.025625L12.729166666666666 20.278541666666666a1.9583333333333333 1.9583333333333333 0 0 0 2.4968749999999997 -0.24479166666666666h0a1.9583333333333333 1.9583333333333333 0 0 0 0.20562499999999997 -2.5654166666666667l-5.032916666666666 -6.854166666666666a1.9583333333333333 1.9583333333333333 0 0 0 -2.9570833333333333 -0.22520833333333334Z" fill="none" stroke="#f6f3ee" stroke-linecap="round" stroke-linejoin="round" stroke-width="0.5"></path>
      <path d="m6.491874999999999 16.028958333333335 1.8995833333333332 -1.8995833333333332" fill="none" stroke="#f6f3ee" stroke-linecap="round" stroke-linejoin="round" stroke-width="0.5"></path>
      <path d="m10.75125 15.137916666666667 1.7233333333333334 -1.733125" fill="none" stroke="#f6f3ee" stroke-linecap="round" stroke-linejoin="round" stroke-width="0.5"></path>
      <path d="m11.299583333333333 19.289583333333333 1.4589583333333334 -1.4589583333333334" fill="none" stroke="#f6f3ee" stroke-linecap="round" stroke-linejoin="round" stroke-width="0.5"></path>
      <path d="m6.374375 11.446458333333332 -4.0145833333333325 0.5679166666666666" fill="none" stroke="#f6f3ee" stroke-linecap="round" stroke-linejoin="round" stroke-width="0.5"></path>
      <path d="M6.374375 11.446458333333332 3.6914583333333333 8.753749999999998" fill="none" stroke="#f6f3ee" stroke-linecap="round" stroke-linejoin="round" stroke-width="0.5"></path>
      <path d="m6.374375 11.446458333333332 0.5777083333333333 -4.0145833333333325" fill="none" stroke="#f6f3ee" stroke-linecap="round" stroke-linejoin="round" stroke-width="0.5"></path>
    </g>
    <path d="m13.708333333333332 8.029166666666665 0.5189583333333333 -0.9791666666666666a0.9791666666666666 0.9791666666666666 0 0 0 0.30354166666666665 0.13708333333333333 1.1652083333333332 1.1652083333333332 0 1 0 0.5777083333333333 -2.252083333333333 1.9583333333333333 1.9583333333333333 0 0 0 -3.6620833333333334 -0.9791666666666666A1.1554166666666665 1.1554166666666665 0 1 0 10.770833333333332 6.168749999999999a0.9791666666666666 0.9791666666666666 0 0 0 0.3329166666666667 0l-0.05875 1.086875Z" fill="none" stroke="#f6f3ee" stroke-linecap="round" stroke-linejoin="round" stroke-width="0.5"></path>
    <path d="m19.309166666666666 12.827083333333333 -0.05875 -1.0770833333333334a1.3610416666666665 1.3610416666666665 0 0 0 0.3329166666666667 0 1.1652083333333332 1.1652083333333332 0 1 0 -0.6658333333333334 -2.2325 1.9583333333333333 1.9583333333333333 0 0 0 -3.6620833333333334 0.9791666666666666 1.1652083333333332 1.1652083333333332 0 1 0 0.5777083333333333 2.252083333333333 1.1260416666666666 1.1260416666666666 0 0 0 0.31333333333333335 -0.13708333333333333l0.5091666666666667 0.9791666666666666Z" fill="none" stroke="#f6f3ee" stroke-linecap="round" stroke-linejoin="round" stroke-width="0.5"></path>
  </g>
</svg>