<svg xmlns="http://www.w3.org/2000/svg" viewBox="0 0 24 24" id="Vegetable-Spinash-Can--Streamline-Ultimate">
  <desc>
    Vegetable Spinash Can Streamline Icon: https://streamlinehq.com
  </desc>
  <defs></defs>
  <path d="M14.976 10.406c1.588 0.367 2.534 3.147 1.971 5.58 -0.511 2.211 -2.722 1.7 -3.913 2.822 -0.578 -1.531 -2.789 -2.042 -2.278 -4.253 0.562 -2.433 2.633 -4.516 4.22 -4.149Z" fill="none" stroke="#0f1e2e" stroke-linecap="round" stroke-linejoin="round" stroke-width="1"></path>
  <path d="m13.931 14.927 -1.306 5.65" fill="none" stroke="#0f1e2e" stroke-linecap="round" stroke-linejoin="round" stroke-width="1"></path>
  <path d="M9.368 10.96a1.95 1.95 0 0 0 -1.1 0.131c-1.481 0.681 -1.845 3.6 -0.8 5.864A2.385 2.385 0 0 0 9.5 18.392" fill="none" stroke="#0f1e2e" stroke-linecap="round" stroke-linejoin="round" stroke-width="1"></path>
  <path d="M2.5 4a9.5 3.5 0 1 0 19 0 9.5 3.5 0 1 0 -19 0" fill="none" stroke="#0f1e2e" stroke-linecap="round" stroke-linejoin="round" stroke-width="1"></path>
  <path d="M21.5 4v16c0 1.933 -3.149 3.5 -9.5 3.5S2.5 21.933 2.5 20V4" fill="none" stroke="#0f1e2e" stroke-linecap="round" stroke-linejoin="round" stroke-width="1"></path>
</svg>