<svg viewBox="0 0 24 24" xmlns="http://www.w3.org/2000/svg" id="Bread-Slice-Spread--Streamline-Ultimate">
  <desc>
    Bread Slice Spread Streamline Icon: https://streamlinehq.com
  </desc>
  <path d="M18.425 11.1A5.6 5.6 0 0 0 15.9 0.5H6.041A5.552 5.552 0 0 0 0.5 6.1c0 3.091 2.11 5.6 5.2 5.6L4.367 22.941a0.5 0.5 0 0 0 0.5 0.559h12.822a0.5 0.5 0 0 0 0.49 -0.6l-1.333 -6.555" fill="none" stroke="#0f1e2e" stroke-linecap="round" stroke-linejoin="round" stroke-width="1"></path>
  <path d="M23.5 23.5 10.506 3c-4.394 2.4 1.265 11.62 5.2 9.131l0.434 -0.249" fill="none" stroke="#0f1e2e" stroke-linecap="round" stroke-linejoin="round" stroke-width="1"></path>
  <path d="M8.616 11.5c-0.9 1.58 0.089 4 1.884 4 -2.225 4.894 5.445 4.642 4 1.006" fill="none" stroke="#0f1e2e" stroke-linecap="round" stroke-linejoin="round" stroke-width="1"></path>
</svg>