<svg id="Honey--Streamline-Ultimate" xmlns="http://www.w3.org/2000/svg" viewBox="0 0 24 24">
  <desc>
    Honey Streamline Icon: https://streamlinehq.com
  </desc>
  <defs></defs>
  <title>honey</title>
  <path d="m12.857 6.17 8.757 -4.207" fill="none" stroke="#0f1e2e" stroke-linecap="round" stroke-linejoin="round" stroke-width="1"></path>
  <path d="M10.582 3.975a1 1 0 0 1 1.349 0.423l1.853 3.544a1 1 0 0 1 -1.773 0.927l-1.852 -3.545a1 1 0 0 1 0.423 -1.349Z" fill="none" stroke="#0f1e2e" stroke-linecap="round" stroke-linejoin="round" stroke-width="1"></path>
  <path d="m8 9.847 -1.386 -2.67a1 1 0 1 1 1.772 -0.927L10 9.347" fill="none" stroke="#0f1e2e" stroke-linecap="round" stroke-linejoin="round" stroke-width="1"></path>
  <path d="M10 9.347 7.922 5.364A1 1 0 0 1 9.7 4.438l2.316 4.431" fill="none" stroke="#0f1e2e" stroke-linecap="round" stroke-linejoin="round" stroke-width="1"></path>
  <path d="M22.037 0.613a1 1 0 1 1 -0.423 1.35 1 1 0 0 1 0.423 -1.35Z" fill="none" stroke="#0f1e2e" stroke-linecap="round" stroke-linejoin="round" stroke-width="1"></path>
  <path d="M1.5 15.5h14s1 0 1 1v1s0 1 -1 1h-14s-1 0 -1 -1v-1s0 -1 1 -1" fill="none" stroke="#0f1e2e" stroke-linecap="round" stroke-linejoin="round" stroke-width="1"></path>
  <path d="M2.5 18.5a5 5 0 0 0 5 5h2a5 5 0 0 0 5 -5" fill="none" stroke="#0f1e2e" stroke-linecap="round" stroke-linejoin="round" stroke-width="1"></path>
  <path d="M12.5 11v0.846a1 1 0 0 1 -1 1c-0.552 0 -1 -0.793 -1 -1.346a2 2 0 0 1 -4 0V11" fill="none" stroke="#0f1e2e" stroke-linecap="round" stroke-linejoin="round" stroke-width="1"></path>
</svg>