<svg viewBox="0 0 24 24" xmlns="http://www.w3.org/2000/svg" id="Milk-Carton--Streamline-Ultimate">
  <desc>
    Milk Carton Streamline Icon: https://streamlinehq.com
  </desc>
  <path d="M23.5 10.914a1 1 0 0 0 -0.293 -0.707L18.5 5.5l-5 5v13h9a1 1 0 0 0 1 -1Z" fill="none" stroke="#0f1e2e" stroke-linecap="round" stroke-linejoin="round" stroke-width="1"></path>
  <path d="M18.5 5.5h-13L0.793 10.207a1 1 0 0 0 -0.293 0.707V22.5a1 1 0 0 0 1 1h12v-13" fill="none" stroke="#0f1e2e" stroke-linecap="round" stroke-linejoin="round" stroke-width="1"></path>
  <path d="m23.41 10.5 -22.82 0" fill="none" stroke="#0f1e2e" stroke-linecap="round" stroke-linejoin="round" stroke-width="1"></path>
  <path d="M18.5 5.5V3a2.793 2.793 0 0 0 -3 -2.5h-7a2.793 2.793 0 0 0 -3 2.5v2.5" fill="none" stroke="#0f1e2e" stroke-linecap="round" stroke-linejoin="round" stroke-width="1"></path>
  <path d="M2.5 13.5h8v4h-8z" fill="none" stroke="#0f1e2e" stroke-linecap="round" stroke-linejoin="round" stroke-width="1"></path>
</svg>