<svg viewBox="0 0 24 24" xmlns="http://www.w3.org/2000/svg" id="Milk-Can--Streamline-Ultimate">
  <desc>
    Milk Can Streamline Icon: https://streamlinehq.com
  </desc>
  <path d="M19 21.5a2 2 0 0 1 -2 2H7a2 2 0 0 1 -2 -2V10.328a2 2 0 0 1 0.586 -1.414L8 6.5h8l2.414 2.414A2 2 0 0 1 19 10.328Z" fill="none" stroke="#0f1e2e" stroke-linecap="round" stroke-linejoin="round" stroke-width="1"></path>
  <path d="M8 3.5h8v3H8z" fill="none" stroke="#0f1e2e" stroke-linecap="round" stroke-linejoin="round" stroke-width="1"></path>
  <path d="m5.182 9.5 13.636 0" fill="none" stroke="#0f1e2e" stroke-linecap="round" stroke-linejoin="round" stroke-width="1"></path>
  <path d="M6 3.5a3 3 0 0 1 3 -3h6a3 3 0 0 1 3 3Z" fill="none" stroke="#0f1e2e" stroke-linecap="round" stroke-linejoin="round" stroke-width="1"></path>
  <path d="M5.021 10.041 3 6" fill="none" stroke="#0f1e2e" stroke-linecap="round" stroke-linejoin="round" stroke-width="1"></path>
  <path d="M18.979 10.041 21 6" fill="none" stroke="#0f1e2e" stroke-linecap="round" stroke-linejoin="round" stroke-width="1"></path>
</svg>