<svg viewBox="0 0 24 24" xmlns="http://www.w3.org/2000/svg" id="Soft-Drinks-Bottle-1--Streamline-Ultimate">
  <desc>
    Soft Drinks Bottle 1 Streamline Icon: https://streamlinehq.com
  </desc>
  <path d="M14.5 3.5V9c0 2 4.5 4.5 4.5 7.5a28.557 28.557 0 0 1 -0.758 6.03A1.349 1.349 0 0 1 17 23.5H7a1.349 1.349 0 0 1 -1.242 -0.97A28.557 28.557 0 0 1 5 16.5c0 -3 4.5 -5.5 4.5 -7.5V3.5" fill="none" stroke="#0f1e2e" stroke-linecap="round" stroke-linejoin="round" stroke-width="1"></path>
  <path d="M14.5 3.5h-5V1a0.5 0.5 0 0 1 0.5 -0.5h4a0.5 0.5 0 0 1 0.5 0.5Z" fill="none" stroke="#0f1e2e" stroke-linecap="round" stroke-linejoin="round" stroke-width="1"></path>
  <path d="m5 16.5 14 0" fill="none" stroke="#0f1e2e" stroke-linecap="round" stroke-linejoin="round" stroke-width="1"></path>
  <path d="m5.356 20.5 13.289 0" fill="none" stroke="#0f1e2e" stroke-linecap="round" stroke-linejoin="round" stroke-width="1"></path>
</svg>