<svg xmlns="http://www.w3.org/2000/svg" fill="none" viewBox="-0.5 0 25 25" id="Vegetables-Broccoli--Streamline-Ultimate">
  <desc>
    Vegetables Broccoli Streamline Icon: https://streamlinehq.com
  </desc>
  <path fill="#78eb7b" d="M11.114 17.865c0.2732 0.7256 0.6682 1.3993 1.168 1.992 0.4373 0.4375 0.9565 0.7846 1.528 1.0213 0.5714 0.2368 1.1839 0.3587 1.8025 0.3587s1.2311 -0.1219 1.8025 -0.3587c0.5715 -0.2367 1.0907 -0.5838 1.528 -1.0213 0.429 -0.3747 0.7759 -0.8339 1.019 -1.3489 0.2432 -0.5151 0.3773 -1.0748 0.394 -1.6441 0.7245 -0.1795 1.3869 -0.5516 1.917 -1.077 0.389 -0.3886 0.6976 -0.8502 0.9081 -1.3581 0.2106 -0.508 0.3189 -1.0525 0.3189 -1.6024s-0.1083 -1.0944 -0.3189 -1.6023c-0.2105 -0.508 -0.5191 -0.9695 -0.9081 -1.35818 -0.4669 -0.46043 -1.0365 -0.80319 -1.662 -1 0.1388 -0.74961 0.0931 -1.52172 -0.133 -2.24975 -0.2262 -0.72803 -0.626 -1.39012 -1.1651 -1.92917 -0.539 -0.53906 -1.2011 -0.9389 -1.9292 -1.16505 -0.728 -0.22614 -1.5001 -0.2718 -2.2497 -0.13303 -0.1969 -0.62541 -0.5397 -1.19505 -1 -1.662 -0.3887 -0.38899 -0.8502 -0.69758 -1.3581 -0.908115C12.2679 0.608366 11.7234 0.5 11.1735 0.5s-1.0944 0.108366 -1.60235 0.318905c-0.50798 0.210535 -0.96949 0.519125 -1.35815 0.908115 -0.52609 0.52911 -0.89897 1.1909 -1.079 1.915 -0.5693 0.0167 -1.12901 0.15083 -1.64404 0.39398 -0.51503 0.24314 -0.97428 0.59007 -1.34896 1.01902 -0.43749 0.43729 -0.78454 0.9565 -1.02132 1.52796s-0.35865 1.18397 -0.35865 1.80254c0 0.61857 0.12187 1.23108 0.35865 1.80258 0.23678 0.5714 0.58383 1.0906 1.02132 1.5279 0.59311 0.4993 1.26668 0.8942 1.992 1.168" stroke-width="1"></path>
  <path fill="#78eb7b" d="M15.463 15.838c0.1187 -0.0359 0.2212 -0.1119 0.29 -0.215 0.7 -1.067 -0.61 -3.259 -2.361 -5.01 -1.751 -1.75103 -3.943 -3.06003 -5.01 -2.36103 -0.10332 0.06839 -0.17912 0.17111 -0.214 0.29C6.663 13.626 3.21 16.305 0.800001 18.758c-0.192841 0.197 -0.300247 0.4622 -0.298936 0.7379 0.00131 0.2757 0.11123 0.5398 0.305936 0.7351L3.775 23.2c0.19524 0.1947 0.45934 0.3046 0.73506 0.3059 0.27573 0.0013 0.54087 -0.1061 0.73794 -0.2989 2.457 -2.407 5.131 -5.865 10.215 -7.369Z" stroke-width="1"></path>
  <path fill="#c9f7ca" d="M4.6 10.262c0.00025 -1.24908 0.49665 -2.44691 1.38 -3.33001 0.37419 -0.42825 0.83265 -0.77475 1.34676 -1.01787 0.5141 -0.24312 1.07282 -0.37763 1.64124 -0.39513 0.17979 -0.72536 0.55265 -1.3885 1.079 -1.919 0.6196 -0.62802 1.4244 -1.04068 2.2959 -1.1773 0.8716 -0.13663 1.764 0.00999 2.5461 0.4183 -0.1882 -0.4118 -0.4433 -0.78958 -0.755 -1.118 -0.3887 -0.38899 -0.8502 -0.69757 -1.3581 -0.908114 -0.508 -0.210538 -1.0525 -0.318904 -1.6024 -0.318904s-1.0944 0.108366 -1.60235 0.318904c-0.50798 0.210544 -0.96949 0.519124 -1.35815 0.908114 -0.52671 0.53022 -0.89964 1.19347 -1.079 1.919 -0.5693 0.0167 -1.12901 0.15083 -1.64404 0.39398 -0.51503 0.24315 -0.97428 0.59007 -1.34896 1.01902 -0.43749 0.4373 -0.78454 0.9565 -1.02132 1.52796s-0.35865 1.18397 -0.35865 1.80254c0 0.61857 0.12187 1.23108 0.35865 1.80251 0.23678 0.5715 0.58383 1.0907 1.02132 1.528 0.31205 0.2603 0.64672 0.4922 1 0.693 -0.34947 -0.6621 -0.53499 -1.3984 -0.541 -2.147Z" stroke-width="1"></path>
  <path fill="#c9f7ca" d="M2.634 20.635C5.044 18.182 8.5 15.5 10 10.419c0.0349 -0.1189 0.1107 -0.2216 0.214 -0.29 0.9 -0.58897 2.6 0.254 4.155 1.579 -0.3069 -0.3835 -0.6337 -0.7506 -0.979 -1.1 -1.751 -1.75097 -3.943 -3.05997 -5.01 -2.36097 -0.10332 0.06838 -0.17912 0.17111 -0.214 0.29C6.663 13.626 3.21 16.305 0.800001 18.758c-0.192841 0.1971 -0.300247 0.4622 -0.298936 0.738 0.00131 0.2757 0.11123 0.5398 0.305936 0.735L2.557 21.981c-0.14989 -0.1966 -0.22452 -0.4404 -0.2104 -0.6872 0.01412 -0.2469 0.11606 -0.4805 0.2874 -0.6588Z" stroke-width="1"></path>
  <path stroke="#191919" stroke-linecap="round" stroke-linejoin="round" d="M11.114 17.865c0.2732 0.7256 0.6682 1.3993 1.168 1.992 0.4373 0.4375 0.9565 0.7846 1.528 1.0213 0.5714 0.2368 1.1839 0.3587 1.8025 0.3587s1.2311 -0.1219 1.8025 -0.3587c0.5715 -0.2367 1.0907 -0.5838 1.528 -1.0213 0.429 -0.3747 0.7759 -0.8339 1.019 -1.3489 0.2432 -0.5151 0.3773 -1.0748 0.394 -1.6441 0.7245 -0.1795 1.3869 -0.5516 1.917 -1.077 0.389 -0.3886 0.6976 -0.8502 0.9081 -1.3581 0.2106 -0.508 0.3189 -1.0525 0.3189 -1.6024s-0.1083 -1.0944 -0.3189 -1.6023c-0.2105 -0.508 -0.5191 -0.9695 -0.9081 -1.35818 -0.4669 -0.46043 -1.0365 -0.80319 -1.662 -1 0.1388 -0.74961 0.0931 -1.52172 -0.133 -2.24975 -0.2262 -0.72803 -0.626 -1.39012 -1.1651 -1.92917 -0.539 -0.53906 -1.2011 -0.9389 -1.9292 -1.16505 -0.728 -0.22614 -1.5001 -0.2718 -2.2497 -0.13303 -0.1969 -0.62541 -0.5397 -1.19505 -1 -1.662 -0.3887 -0.38899 -0.8502 -0.69758 -1.3581 -0.908115C12.2679 0.608366 11.7234 0.5 11.1735 0.5s-1.0944 0.108366 -1.60235 0.318905c-0.50798 0.210535 -0.96949 0.519125 -1.35815 0.908115 -0.52609 0.52911 -0.89897 1.1909 -1.079 1.915 -0.5693 0.0167 -1.12901 0.15083 -1.64404 0.39398 -0.51503 0.24314 -0.97428 0.59007 -1.34896 1.01902 -0.43749 0.43729 -0.78454 0.9565 -1.02132 1.52796s-0.35865 1.18397 -0.35865 1.80254c0 0.61857 0.12187 1.23108 0.35865 1.80258 0.23678 0.5714 0.58383 1.0906 1.02132 1.5279 0.59311 0.4993 1.26668 0.8942 1.992 1.168" stroke-width="1"></path>
  <path stroke="#191919" stroke-linecap="round" stroke-linejoin="round" d="M15.463 15.838c0.1187 -0.0359 0.2212 -0.1119 0.29 -0.215 0.7 -1.067 -0.61 -3.259 -2.361 -5.01 -1.751 -1.75103 -3.943 -3.06003 -5.01 -2.36103 -0.10332 0.06839 -0.17912 0.17111 -0.214 0.29C6.663 13.626 3.21 16.305 0.800001 18.758c-0.192841 0.197 -0.300247 0.4622 -0.298936 0.7379 0.00131 0.2757 0.11123 0.5398 0.305936 0.7351L3.775 23.2c0.19524 0.1947 0.45934 0.3046 0.73506 0.3059 0.27573 0.0013 0.54087 -0.1061 0.73794 -0.2989 2.457 -2.407 5.131 -5.865 10.215 -7.369Z" stroke-width="1"></path>
  <path stroke="#191919" stroke-linecap="round" stroke-linejoin="round" d="M6.851 7.85099c0.64147 0.32142 1.37982 0.39182 2.07048 0.19743 0.69066 -0.1944 1.28392 -0.6396 1.66352 -1.24843" stroke-width="1"></path>
  <path stroke="#191919" stroke-linecap="round" stroke-linejoin="round" d="M11.423 8.96997 9.058 12.558" stroke-width="1"></path>
  <path stroke="#191919" stroke-linecap="round" stroke-linejoin="round" d="M16.148 17.154c-0.3211 -0.6416 -0.3912 -1.38 -0.1967 -2.0706 0.1946 -0.6906 0.6399 -1.2838 1.2487 -1.6634" stroke-width="1"></path>
  <path stroke="#191919" stroke-linecap="round" stroke-linejoin="round" d="m15.025 12.58 -3.588 2.365" stroke-width="1"></path>
</svg>