<svg xmlns="http://www.w3.org/2000/svg" fill="none" viewBox="0 -0.5 25 25" id="Vegetables-Salad--Streamline-Ultimate">
  <desc>
    Vegetables Salad Streamline Icon: https://streamlinehq.com
  </desc>
  <path fill="#78eb7b" d="M15.927 6.21798c-0.0012 -0.13811 -0.018 -0.27564 -0.05 -0.41Z" stroke-width="1"></path>
  <path fill="#78eb7b" d="M22.727 9.03801c0.1731 0.29927 0.2803 0.63203 0.3145 0.97599 0.0342 0.3441 -0.0054 0.6914 -0.1161 1.0189 -0.1108 0.3275 -0.2901 0.6276 -0.5261 0.8802 -0.236 0.2527 -0.5231 0.4521 -0.8423 0.5849H0.737001c0.103482 -0.2003 0.238544 -0.3826 0.399999 -0.54 -0.156153 -0.2187 -0.274466 -0.4621 -0.349999 -0.72 -0.144475 -0.4498 -0.139779 -0.9342 0.013389 -1.38107 0.153167 -0.44689 0.44661 -0.83233 0.83661 -1.09892 -0.12351 -0.33001 -0.18002 -0.68133 -0.16622 -1.03343 0.0138 -0.3521 0.09763 -0.69792 0.24659 -1.01726 0.14896 -0.31933 0.36007 -0.60578 0.62098 -0.84261 0.26092 -0.23682 0.56642 -0.41928 0.89865 -0.5367 0.34473 -0.0785 0.70158 -0.08798 1.04999 -0.02791 0.3484 0.06007 0.68148 0.18851 0.98001 0.37791 0.34416 0.21714 0.62929 0.51601 0.83 0.87 0.04566 -0.45282 0.20782 -0.8861 0.47069 -1.25763 0.26287 -0.37152 0.61749 -0.66863 1.02931 -0.86237 -0.0921 -0.42647 -0.09814 -0.86703 -0.01776 -1.29586 0.08038 -0.42884 0.24556 -0.83731 0.48585 -1.20147 0.24029 -0.36417 0.55087 -0.6767 0.91352 -0.91928 0.36265 -0.242576 0.77007 -0.410318 1.19839 -0.493389 0.4348 -0.034532 0.8722 0.018314 1.2863 0.155425s0.7966 0.355714 1.1249 0.642924c0.3283 0.28722 0.5958 0.63723 0.7868 1.02943 0.1909 0.3922 0.3014 0.81865 0.325 1.25422 0.5459 0.10097 1.0476 0.36703 1.4375 0.76224 0.3898 0.39522 0.649 0.90055 0.7425 1.44776 -0.0159 -0.33791 0.0435 -0.67514 0.1741 -0.98722 0.1305 -0.31209 0.3288 -0.59122 0.5806 -0.81715 0.2518 -0.22594 0.5507 -0.39301 0.8751 -0.48911 0.3243 -0.0961 0.666 -0.11883 1.0002 -0.06652 0.1384 -0.32601 0.342 -0.62031 0.5982 -0.86483 0.2562 -0.24453 0.5597 -0.43413 0.8918 -0.55717 0.3299 -0.12353 0.6811 -0.18008 1.0331 -0.16634 0.3519 0.01373 0.6977 0.09748 1.0169 0.24634 0.3034 0.18292 0.5668 0.42501 0.7746 0.71187 0.2079 0.28686 0.3559 0.61261 0.4352 0.95785 0.0793 0.34524 0.0883 0.70291 0.0265 1.05171 -0.0618 0.34881 -0.1932 0.6816 -0.3863 0.97857 0.2056 0.22092 0.3646 0.48093 0.4677 0.76457 0.103 0.28364 0.1479 0.58511 0.1321 0.88647 -0.0159 0.30136 -0.0922 0.59644 -0.2245 0.8677 -0.1322 0.27126 -0.3177 0.51314 -0.5453 0.71126h-0.003Z" stroke-width="1"></path>
  <path fill="#ffdda1" d="M0.5 14.5c0 4.97 5 9 11.5 9s11.5 -4.03 11.5 -9H0.5Z" stroke-width="1"></path>
  <path fill="#ffbc44" d="M12 19.5c-4.62 0 -8.471 -2.041 -10.319 -5H0.5c0 4.97 5 9 11.5 9s11.5 -4.03 11.5 -9h-1.181c-1.848 2.962 -5.699 5 -10.319 5Z" stroke-width="1"></path>
  <path stroke="#191919" stroke-linecap="round" stroke-linejoin="round" d="M0.5 14.5c0 4.97 5 9 11.5 9s11.5 -4.03 11.5 -9H0.5Z" stroke-width="1"></path>
  <path stroke="#191919" stroke-linecap="round" stroke-linejoin="round" d="M10.023 10.962c-0.14488 -0.2874 -0.35108 -0.5396 -0.60404 -0.7386 -0.25296 -0.1991 -0.54651 -0.34017 -0.85995 -0.4134 0.02449 -0.30058 -0.01165 -0.60303 -0.10626 -0.88938 -0.09462 -0.28636 -0.24579 -0.55079 -0.44454 -0.77762 -0.19875 -0.22682 -0.44104 -0.41142 -0.71248 -0.54283 -0.27145 -0.13141 -0.56652 -0.20696 -0.86772 -0.22217 -0.07026 -0.34628 -0.20922 -0.67496 -0.40865 -0.96662 -0.19944 -0.29167 -0.45531 -0.5404 -0.75251 -0.73151 -0.29719 -0.1911 -0.62967 -0.3207 -0.97779 -0.38114 -0.34813 -0.06044 -0.70484 -0.05048 -1.04905 0.02927 -0.3332 0.1167 -0.63967 0.29889 -0.90137 0.53586 -0.2617 0.23696 -0.47333 0.52389 -0.62243 0.8439 -0.1491 0.32001 -0.23266 0.66662 -0.24574 1.01942 -0.01309 0.3528 0.04455 0.70465 0.16954 1.03482 -0.3908 0.2659 -0.684937 0.65125 -0.838353 1.09833 -0.153416 0.44707 -0.157854 0.93187 -0.012649 1.38167 0.074818 0.2559 0.191753 0.4975 0.346002 0.715 -0.160594 0.1575 -0.293759 0.3407 -0.394002 0.542" stroke-width="1"></path>
  <path stroke="#191919" stroke-linecap="round" stroke-linejoin="round" d="M15.924 6.22198c-0.0134 -0.62593 -0.2417 -1.22819 -0.6467 -1.70564 -0.405 -0.47745 -0.9619 -0.80102 -1.5773 -0.91636 -0.0237 -0.43568 -0.1344 -0.8622 -0.3256 -1.25439 -0.1912 -0.39219 -0.4591 -0.74211 -0.7877 -1.0291 -0.3287 -0.28699 -0.7115 -0.505244 -1.1259 -0.641873 -0.4143 -0.136628 -0.8519 -0.188867 -1.2868 -0.153633 -0.42825 0.082634 -0.83563 0.250131 -1.19816 0.492626 -0.36253 0.24249 -0.67286 0.55508 -0.91273 0.91935 -0.23987 0.36428 -0.40441 0.77287 -0.48395 1.20171 -0.07953 0.42884 -0.07244 0.86925 0.02085 1.29531 -0.41714 0.19465 -0.7755 0.49595 -1.03888 0.87346 -0.26338 0.37751 -0.42245 0.81786 -0.46112 1.27654" stroke-width="1"></path>
  <path stroke="#191919" stroke-linecap="round" stroke-linejoin="round" d="M21.561 12.5c0.3184 -0.1345 0.6046 -0.3351 0.8396 -0.5886 0.2349 -0.2534 0.4133 -0.554 0.5233 -0.8816 0.11 -0.3277 0.149 -0.675 0.1146 -1.0189 -0.0345 -0.34395 -0.1417 -0.6766 -0.3145 -0.97593 0.2287 -0.19782 0.4152 -0.4397 0.5483 -0.71118 0.1332 -0.27148 0.2103 -0.56701 0.2267 -0.86894 0.0164 -0.30193 -0.0282 -0.60408 -0.1311 -0.8884 -0.1029 -0.28433 -0.262 -0.54501 -0.4679 -0.76648 0.1917 -0.29679 0.3219 -0.629 0.3831 -0.97698 0.0611 -0.34799 0.0519 -0.7047 -0.0272 -1.04906 -0.079 -0.34436 -0.2263 -0.66938 -0.4331 -0.95586 -0.2068 -0.28648 -0.4689 -0.52862 -0.7708 -0.7121 -0.3199 -0.14997 -0.6665 -0.23432 -1.0195 -0.24807 -0.353 -0.01375 -0.7052 0.04338 -1.0357 0.16801 -0.3306 0.12463 -0.6328 0.31424 -0.8889 0.55763 -0.256 0.24339 -0.4607 0.53562 -0.6019 0.85943 -0.3344 -0.05111 -0.676 -0.02738 -1.0001 0.0695 -0.3241 0.09688 -0.6227 0.26449 -0.8742 0.49073 -0.2515 0.22624 -0.4496 0.50548 -0.5801 0.81758 -0.1306 0.3121 -0.1902 0.64927 -0.1746 0.98719" stroke-width="1"></path>
  <path fill="#f5bc5c" d="M19.005 12.5c0.2961 -0.2204 0.5415 -0.5016 0.7199 -0.8247 0.1783 -0.3232 0.2854 -0.6808 0.3141 -1.0487 0.0287 -0.368 -0.0218 -0.73784 -0.1479 -1.0847 -0.1261 -0.34686 -0.3251 -0.66271 -0.5834 -0.92631 -0.2583 -0.26359 -0.5701 -0.46884 -0.9144 -0.60193 -0.3442 -0.1331 -0.713 -0.19096 -1.0814 -0.16971 -0.3685 0.02126 -0.7282 0.12115 -1.0548 0.29295 -0.3267 0.1718 -0.6128 0.41154 -0.8391 0.7031 -0.0983 0.12522 -0.185 0.2591 -0.259 0.4l0.609 3.256" stroke-width="1"></path>
  <path fill="#430cd2" d="M17.607 11.041c-0.4363 -0.0003 -0.8676 -0.0932 -1.2653 -0.2727 -0.3977 -0.1794 -0.7528 -0.4413 -1.0417 -0.7683l0.468 2.5h3.237c0.3983 -0.2941 0.7038 -0.6964 0.8802 -1.1591s0.2162 -0.9662 0.1148 -1.45089c-0.2879 0.35809 -0.6521 0.64729 -1.0662 0.84649 -0.414 0.1991 -0.8674 0.3032 -1.3268 0.3045Z" stroke-width="1"></path>
  <path stroke="#191919" stroke-linecap="round" stroke-linejoin="round" d="M19.005 12.5c0.2961 -0.2204 0.5415 -0.5016 0.7199 -0.8247 0.1783 -0.3232 0.2854 -0.6808 0.3141 -1.0487 0.0287 -0.368 -0.0218 -0.73784 -0.1479 -1.0847 -0.1261 -0.34686 -0.3251 -0.66271 -0.5834 -0.92631 -0.2583 -0.26359 -0.5701 -0.46884 -0.9144 -0.60193 -0.3442 -0.1331 -0.713 -0.19096 -1.0814 -0.16971 -0.3685 0.02126 -0.7282 0.12115 -1.0548 0.29295 -0.3267 0.1718 -0.6128 0.41154 -0.8391 0.7031 -0.0983 0.12522 -0.185 0.2591 -0.259 0.4l0.609 3.256" stroke-width="1"></path>
  <path stroke="#191919" stroke-linecap="round" stroke-linejoin="round" d="M4.5 9.34003c0.62516 0.93767 0.97188 2.03337 1 3.15997" stroke-width="1"></path>
  <path stroke="#191919" stroke-linecap="round" stroke-linejoin="round" d="m10.5 3.84003 0.071 0.179c0.5901 1.47461 0.905 3.04488 0.929 4.633" stroke-width="1"></path>
  <path stroke="#191919" stroke-linecap="round" stroke-linejoin="round" d="M20.5 5.34003c-0.8029 0.80797 -1.5121 1.70397 -2.114 2.671" stroke-width="1"></path>
  <path fill="#f5bc5c" d="M10.232 12.5c-0.1905 -0.4559 -0.26551 -0.9519 -0.2182 -1.4438 0.0472 -0.4919 0.2153 -0.9645 0.4892 -1.37577 0.2739 -0.41131 0.6451 -0.74859 1.0807 -0.98188 0.4356 -0.23328 0.9221 -0.35535 1.4163 -0.35535 0.4942 0 0.9807 0.12207 1.4163 0.35535 0.4356 0.23329 0.8068 0.57057 1.0807 0.98188 0.2739 0.41127 0.442 0.88387 0.4892 1.37577 0.0473 0.4919 -0.0277 0.9879 -0.2182 1.4438" stroke-width="1"></path>
  <path fill="#430cd2" d="M13 11.273c-0.5145 -0.0006 -1.0215 -0.1233 -1.4793 -0.3582s-0.8532 -0.5752 -1.1537 -0.9928c-0.2125 0.3922 -0.3349 0.8268 -0.3583 1.2723 -0.02332 0.4454 0.053 0.8904 0.2233 1.3027h5.536c0.171 -0.4121 0.2476 -0.8572 0.2242 -1.3028 -0.0233 -0.4456 -0.1461 -0.8802 -0.3592 -1.2722 -0.3004 0.4177 -0.6959 0.758 -1.1536 0.9929 -0.4578 0.2349 -0.9649 0.3576 -1.4794 0.3581Z" stroke-width="1"></path>
  <path stroke="#191919" stroke-linecap="round" stroke-linejoin="round" d="M10.232 12.5c-0.1905 -0.4559 -0.26551 -0.9519 -0.2182 -1.4438 0.0472 -0.4919 0.2153 -0.9645 0.4892 -1.37577 0.2739 -0.41131 0.6451 -0.74859 1.0807 -0.98188 0.4356 -0.23328 0.9221 -0.35535 1.4163 -0.35535 0.4942 0 0.9807 0.12207 1.4163 0.35535 0.4356 0.23329 0.8068 0.57057 1.0807 0.98188 0.2739 0.41127 0.442 0.88387 0.4892 1.37577 0.0473 0.4919 -0.0277 0.9879 -0.2182 1.4438" stroke-width="1"></path>
</svg>