<svg xmlns="http://www.w3.org/2000/svg" viewBox="0 0 24 24" id="Vegetables-Carrot--Streamline-Ultimate">
  <desc>
    Vegetables Carrot Streamline Icon: https://streamlinehq.com
  </desc>
  <g>
    <path d="M20.56 10.47a32.7 32.7 0 0 0 -3.24 -3.79 32.7 32.7 0 0 0 -3.79 -3.24 1.58 1.58 0 0 0 -2.1 0.4L0.77 21.31a1.37 1.37 0 0 0 1.92 1.92l17.47 -10.66a1.58 1.58 0 0 0 0.4 -2.1Z" fill="none" stroke="#0f1e2e" stroke-linecap="round" stroke-linejoin="round" stroke-width="1"></path>
    <path d="M15.89 5.34 17.83 0.5" fill="none" stroke="#0f1e2e" stroke-linecap="round" stroke-linejoin="round" stroke-width="1"></path>
    <path d="m18.66 8.11 4.84 -1.94" fill="none" stroke="#0f1e2e" stroke-linecap="round" stroke-linejoin="round" stroke-width="1"></path>
    <path d="m17.32 6.68 4.52 -4.52" fill="none" stroke="#0f1e2e" stroke-linecap="round" stroke-linejoin="round" stroke-width="1"></path>
    <path d="m10.42 5.5 4.03 4.04" fill="none" stroke="#0f1e2e" stroke-linecap="round" stroke-linejoin="round" stroke-width="1"></path>
    <path d="m11.11 12.15 3.69 3.69" fill="none" stroke="#0f1e2e" stroke-linecap="round" stroke-linejoin="round" stroke-width="1"></path>
    <path d="m8.19 16.53 2.08 2.07" fill="none" stroke="#0f1e2e" stroke-linecap="round" stroke-linejoin="round" stroke-width="1"></path>
  </g>
</svg>