<svg xmlns="http://www.w3.org/2000/svg" viewBox="0 0 24 24" id="Vegetable-Lima-Bean--Streamline-Ultimate">
  <desc>
    Vegetable Lima Bean Streamline Icon: https://streamlinehq.com
  </desc>
  <defs></defs>
  <path d="M19.34 11.357a2 2 0 0 0 -2.14 0.843 3.442 3.442 0 0 1 -3.994 1.259 2 2 0 0 0 -2.238 0.535 5.035 5.035 0 0 0 -1.176 4.955c1 3.16 3.86 5.6 8.629 4.1s5.719 -5.142 4.724 -8.3a5.034 5.034 0 0 0 -3.805 -3.392Z" fill="none" stroke="#0f1e2e" stroke-linecap="round" stroke-linejoin="round" stroke-width="1"></path>
  <path d="M12.28 13.327a3.1 3.1 0 0 0 0.125 0.605c0.5 1.58 1 3.186 3.865 2.285s2.355 -2.508 1.857 -4.088a2.992 2.992 0 0 0 -0.244 -0.567" fill="none" stroke="#0f1e2e" stroke-linecap="round" stroke-linejoin="round" stroke-width="1"></path>
  <path d="m16.27 16.217 1.25 3.967" fill="none" stroke="#0f1e2e" stroke-linecap="round" stroke-linejoin="round" stroke-width="1"></path>
  <path d="M13.758 16.219a2.931 2.931 0 0 0 -0.027 3.586" fill="none" stroke="#0f1e2e" stroke-linecap="round" stroke-linejoin="round" stroke-width="1"></path>
  <path d="M18.328 14.778a2.93 2.93 0 0 1 2.079 2.922" fill="none" stroke="#0f1e2e" stroke-linecap="round" stroke-linejoin="round" stroke-width="1"></path>
  <path d="M12.323 2.74a1.909 1.909 0 0 0 -2.154 -0.418 3.173 3.173 0 0 1 -2.105 0.139A3.167 3.167 0 0 1 6.311 1.29 1.909 1.909 0 0 0 4.236 0.575 4.8 4.8 0 0 0 0.752 3.959c-0.817 3.052 0.24 6.481 4.848 7.714s7.235 -1.209 8.052 -4.262a4.8 4.8 0 0 0 -1.329 -4.671Z" fill="none" stroke="#0f1e2e" stroke-linecap="round" stroke-linejoin="round" stroke-width="1"></path>
  <path d="M5.633 0.71a2.921 2.921 0 0 0 -0.209 0.55c-0.409 1.526 -0.824 3.078 1.94 3.818s3.179 -0.812 3.588 -2.338a2.95 2.95 0 0 0 0.093 -0.582" fill="none" stroke="#0f1e2e" stroke-linecap="round" stroke-linejoin="round" stroke-width="1"></path>
  <path d="M7.364 5.078 6.338 8.91" fill="none" stroke="#0f1e2e" stroke-linecap="round" stroke-linejoin="round" stroke-width="1"></path>
  <path d="M5.342 3.793a2.8 2.8 0 0 0 -1.859 2.871" fill="none" stroke="#0f1e2e" stroke-linecap="round" stroke-linejoin="round" stroke-width="1"></path>
  <path d="M9.756 4.974a2.8 2.8 0 0 1 0.176 3.417" fill="none" stroke="#0f1e2e" stroke-linecap="round" stroke-linejoin="round" stroke-width="1"></path>
</svg>