<svg xmlns="http://www.w3.org/2000/svg" viewBox="0 0 24 24">
  <path d="m15.821 14.511 -4.069 0 2.264 -2.263" fill="none" stroke="#0f1e2e" stroke-linecap="round" stroke-linejoin="round" stroke-width="1"></path>
  <path d="m9.489 8.179 0 4.069 2.263 -2.264" fill="none" stroke="#0f1e2e" stroke-linecap="round" stroke-linejoin="round" stroke-width="1"></path>
  <path d="M6.471 7.721v3.071a5.335 5.335 0 0 1 -1.563 3.773l-4.1 4.1a1.066 1.066 0 0 0 0 1.509l3.022 3.013a1.066 1.066 0 0 0 1.509 0l4.1 -4.1a5.335 5.335 0 0 1 3.773 -1.563h3.071" fill="none" stroke="#0f1e2e" stroke-linecap="round" stroke-linejoin="round" stroke-width="1"></path>
  <path d="M21.487 11.468a5.335 5.335 0 1 1 -7.1 7.943" fill="none" stroke="#0f1e2e" stroke-linecap="round" stroke-linejoin="round" stroke-width="1"></path>
  <path d="M4.57 9.593a5.335 5.335 0 1 1 7.962 -7.08" fill="none" stroke="#0f1e2e" stroke-linecap="round" stroke-linejoin="round" stroke-width="1"></path>
  <path d="M10.97 3.185a7.2 7.2 0 0 1 9.881 9.782" fill="none" stroke="#0f1e2e" stroke-linecap="round" stroke-linejoin="round" stroke-width="1"></path>
</svg>
