<svg xmlns="http://www.w3.org/2000/svg" fill="none" viewBox="0 0 24 24" id="Fruit-Acorn--Streamline-Ultimate">
  <desc>
    Fruit Acorn Streamline Icon: https://streamlinehq.com
  </desc>
  <path stroke="#0f1e2e" stroke-linecap="round" stroke-linejoin="round" d="M1.62001 21.748c0.0543 0.1442 0.13877 0.2752 0.24776 0.3842 0.10899 0.109 0.23999 0.1935 0.38424 0.2478 7.382 2.77 12.24699 0.107 17.11299 -4.759L6.37901 4.63599c-4.865 4.864 -7.53 9.73101 -4.759 17.11201Z" stroke-width="1"></path>
  <path stroke="#0f1e2e" stroke-linecap="round" stroke-linejoin="round" d="M23.184 3.10794c0.2023 -0.20282 0.3158 -0.47756 0.3158 -0.764 0 -0.28643 -0.1135 -0.56117 -0.3158 -0.764L22.42 0.815945c-0.2028 -0.202249 -0.4776 -0.315823 -0.764 -0.315823s-0.5612 0.113574 -0.764 0.315823L18.556 3.15194c-1.7912 -1.43085 -4.0304 -2.182751 -6.3222 -2.12292 -2.29175 0.05983 -4.48867 0.92755 -6.20279 2.44992 -0.05467 0.04905 -0.0988 0.1087 -0.12971 0.17532 -0.03091 0.06663 -0.04796 0.13884 -0.05012 0.21225 -0.00215 0.07342 0.01065 0.1465 0.03761 0.21482 0.02696 0.06832 0.06752 0.13045 0.11922 0.18261L19.736 17.9919c0.052 0.0522 0.1141 0.0932 0.1825 0.1204 0.0684 0.0272 0.1416 0.0401 0.2152 0.0378 0.0736 -0.0022 0.1459 -0.0196 0.2126 -0.0509 0.0666 -0.0313 0.1261 -0.076 0.1747 -0.1313 1.5225 -1.7138 2.3903 -3.9107 2.4499 -6.2024 0.0597 -2.29174 -0.6926 -4.53078 -2.1239 -6.32156l2.337 -2.336Z" stroke-width="1"></path>
  <path stroke="#0f1e2e" d="M17.75 11c-0.1381 0 -0.25 -0.1119 -0.25 -0.25s0.1119 -0.25 0.25 -0.25" stroke-width="1"></path>
  <path stroke="#0f1e2e" d="M17.75 11c0.1381 0 0.25 -0.1119 0.25 -0.25s-0.1119 -0.25 -0.25 -0.25" stroke-width="1"></path>
  <path stroke="#0f1e2e" d="M18.75 14c-0.1381 0 -0.25 -0.1119 -0.25 -0.25s0.1119 -0.25 0.25 -0.25" stroke-width="1"></path>
  <path stroke="#0f1e2e" d="M18.75 14c0.1381 0 0.25 -0.1119 0.25 -0.25s-0.1119 -0.25 -0.25 -0.25" stroke-width="1"></path>
  <g>
    <path stroke="#0f1e2e" d="M20.75 12c-0.1381 0 -0.25 -0.1119 -0.25 -0.25s0.1119 -0.25 0.25 -0.25" stroke-width="1"></path>
    <path stroke="#0f1e2e" d="M20.75 12c0.1381 0 0.25 -0.1119 0.25 -0.25s-0.1119 -0.25 -0.25 -0.25" stroke-width="1"></path>
  </g>
</svg>