<svg viewBox="0 0 24 24" xmlns="http://www.w3.org/2000/svg" id="Bread-Slice--Streamline-Ultimate">
  <desc>
    Bread Slice Streamline Icon: https://streamlinehq.com
  </desc>
  <path d="M4 7.244a3 3 0 0 0 -0.5 1.664V22.5a1 1 0 0 0 1 1h15a1 1 0 0 0 1 -1V8.908a3 3 0 0 0 -0.5 -1.664l-0.5 -0.744a3 3 0 0 0 0 -6h-15a3 3 0 0 0 0 6Z" fill="none" stroke="#0f1e2e" stroke-linecap="round" stroke-linejoin="round" stroke-width="1"></path>
  <path d="m6.901 13.401 4.5 -4.5" fill="none" stroke="#0f1e2e" stroke-linecap="round" stroke-linejoin="round" stroke-width="1"></path>
  <path d="m8.288 17.672 7.424 -7.425" fill="none" stroke="#0f1e2e" stroke-linecap="round" stroke-linejoin="round" stroke-width="1"></path>
  <path d="m12.559 19.059 4.5 -4.5" fill="none" stroke="#0f1e2e" stroke-linecap="round" stroke-linejoin="round" stroke-width="1"></path>
</svg>