<svg xmlns="http://www.w3.org/2000/svg" fill="none" viewBox="0 0 24 24" id="Wedding-Cake--Streamline-Ultimate">
  <desc>
    Wedding Cake Streamline Icon: https://streamlinehq.com
  </desc>
  <path stroke="#0f1e2e" stroke-linecap="round" stroke-linejoin="round" d="M4.50944 16.5088H19.4906c0.5297 0 1.0378 0.2104 1.4124 0.585 0.3746 0.3746 0.585 0.8827 0.585 1.4125v4.4943c0 0.1324 -0.0526 0.2595 -0.1462 0.3531 -0.0937 0.0937 -0.2207 0.1463 -0.3531 0.1463H3.01133c-0.13244 0 -0.25945 -0.0526 -0.3531 -0.1463 -0.09365 -0.0936 -0.14627 -0.2207 -0.14627 -0.3531v-4.4943c0 -0.5298 0.21045 -1.0379 0.58505 -1.4125 0.3746 -0.3746 0.88267 -0.585 1.41243 -0.585v0Z" stroke-width="1"></path>
  <path stroke="#0f1e2e" stroke-linecap="round" stroke-linejoin="round" d="M12 16.5088V14.012" stroke-width="1"></path>
  <path stroke="#0f1e2e" stroke-linecap="round" stroke-linejoin="round" d="M5.00881 14.012H18.9912" stroke-width="1"></path>
  <path stroke="#0f1e2e" stroke-linecap="round" stroke-linejoin="round" d="M17.4931 14.012v-3.4956c0 -0.2649 -0.1053 -0.51894 -0.2926 -0.70624 -0.1873 -0.1873 -0.4413 -0.29252 -0.7062 -0.29252H7.50567c-0.26488 0 -0.51892 0.10522 -0.70622 0.29252 -0.1873 0.1873 -0.29252 0.44134 -0.29252 0.70624v3.4956" stroke-width="1"></path>
  <path stroke="#0f1e2e" stroke-linecap="round" stroke-linejoin="round" d="M15.4956 9.51764V7.52016c0 -0.26488 -0.1052 -0.51891 -0.2925 -0.70621 -0.1873 -0.1873 -0.4414 -0.29253 -0.7062 -0.29253H9.50315c-0.26488 0 -0.51892 0.10523 -0.70622 0.29253 -0.1873 0.1873 -0.29252 0.44133 -0.29252 0.70621v1.99748" stroke-width="1"></path>
  <path stroke="#0f1e2e" stroke-linecap="round" stroke-linejoin="round" d="M12 23.5v-2.4969" stroke-width="1"></path>
  <path stroke="#0f1e2e" stroke-linecap="round" stroke-linejoin="round" d="M17.9924 23.5v-2.9962" stroke-width="1"></path>
  <path stroke="#0f1e2e" stroke-linecap="round" stroke-linejoin="round" d="M14.9962 23.5v-3.995" stroke-width="1"></path>
  <path stroke="#0f1e2e" stroke-linecap="round" stroke-linejoin="round" d="M6.00755 23.5v-2.9962" stroke-width="1"></path>
  <path stroke="#0f1e2e" stroke-linecap="round" stroke-linejoin="round" d="M9.00377 23.5v-3.995" stroke-width="1"></path>
  <path stroke="#0f1e2e" stroke-linecap="round" stroke-linejoin="round" d="M12.4394 5.3429c-0.1175 0.11469 -0.2752 0.17888 -0.4394 0.17888s-0.3219 -0.06419 -0.4394 -0.17888L9.34335 3.08574c-0.23861 -0.21065 -0.40118 -0.49405 -0.46256 -0.80637 -0.06138 -0.31232 -0.01816 -0.63616 0.12299 -0.92145v0c0.1185 -0.22265 0.28741 -0.414524 0.49325 -0.560288 0.20585 -0.145764 0.44292 -0.241385 0.69227 -0.279227 0.2494 -0.037842 0.5042 -0.016859 0.744 0.061276 0.2398 0.078134 0.458 0.211255 0.6372 0.388734L12 1.3779l0.4394 -0.409485c0.1783 -0.177467 0.3957 -0.310637 0.6348 -0.388805 0.2391 -0.078167 0.4932 -0.099153 0.7419 -0.061269 0.2486 0.037884 0.485 0.13358 0.6899 0.279397 0.205 0.145816 0.3729 0.337682 0.4902 0.560182v0c0.1459 0.28114 0.1956 0.60235 0.1415 0.91442 -0.0542 0.31207 -0.2091 0.5978 -0.4411 0.8134L12.4394 5.3429Z" stroke-width="1"></path>
  <g>
    <path stroke="#0f1e2e" d="M9.25 12c-0.13807 0 -0.25 -0.1119 -0.25 -0.25s0.11193 -0.25 0.25 -0.25" stroke-width="1"></path>
    <path stroke="#0f1e2e" d="M9.25 12c0.13807 0 0.25 -0.1119 0.25 -0.25s-0.11193 -0.25 -0.25 -0.25" stroke-width="1"></path>
  </g>
  <g>
    <path stroke="#0f1e2e" d="M12 12c-0.1381 0 -0.25 -0.1119 -0.25 -0.25s0.1119 -0.25 0.25 -0.25" stroke-width="1"></path>
    <path stroke="#0f1e2e" d="M12 12c0.1381 0 0.25 -0.1119 0.25 -0.25s-0.1119 -0.25 -0.25 -0.25" stroke-width="1"></path>
  </g>
  <g>
    <path stroke="#0f1e2e" d="M14.75 12c-0.1381 0 -0.25 -0.1119 -0.25 -0.25s0.1119 -0.25 0.25 -0.25" stroke-width="1"></path>
    <path stroke="#0f1e2e" d="M14.75 12c0.1381 0 0.25 -0.1119 0.25 -0.25s-0.1119 -0.25 -0.25 -0.25" stroke-width="1"></path>
  </g>
</svg>