<svg viewBox="0 0 24 24" xmlns="http://www.w3.org/2000/svg" id="Seafood-Salmon--Streamline-Ultimate">
  <desc>
    Seafood Salmon Streamline Icon: https://streamlinehq.com
  </desc>
  <path d="M23.455 15.113a0.5 0.5 0 0 1 -0.695 0.645c-1.469 -0.8 -3.26 -2.181 -3.26 -3.758s1.791 -2.956 3.26 -3.758a0.5 0.5 0 0 1 0.695 0.645 7.728 7.728 0 0 0 0 6.226Z" fill="none" stroke="#0f1e2e" stroke-linecap="round" stroke-linejoin="round" stroke-width="1"></path>
  <path d="M4.5 12a1.5 1.5 0 1 0 3 0 1.5 1.5 0 1 0 -3 0Z" fill="none" stroke="#0f1e2e" stroke-linecap="round" stroke-linejoin="round" stroke-width="1"></path>
  <path d="M2.5 12a3.5 3.5 0 1 0 7 0 3.5 3.5 0 1 0 -7 0Z" fill="none" stroke="#0f1e2e" stroke-linecap="round" stroke-linejoin="round" stroke-width="1"></path>
  <path d="M6 6.5c10 0 13.5 5.5 13.5 5.5s-4 5.5 -13.5 5.5" fill="none" stroke="#0f1e2e" stroke-linecap="round" stroke-linejoin="round" stroke-width="1"></path>
  <path d="M0.5 12a5.5 5.5 0 1 0 11 0 5.5 5.5 0 1 0 -11 0Z" fill="none" stroke="#0f1e2e" stroke-linecap="round" stroke-linejoin="round" stroke-width="1"></path>
</svg>