<svg xmlns="http://www.w3.org/2000/svg" viewBox="0 0 24 24" id="Aluminum--Streamline-Ultimate">
  <desc>
    Aluminum Streamline Icon: https://streamlinehq.com
  </desc>
  <defs></defs>
  <title>aluminum</title>
  <path d="M22.072 6.093a2.928 2.928 0 0 1 1.134 2.145c0 2.707 -5.047 4.9 -11.272 4.9S0.662 10.945 0.662 8.238s5.047 -4.9 11.272 -4.9a24.553 24.553 0 0 1 4.223 0.356" fill="none" stroke="#0f1e2e" stroke-linecap="round" stroke-linejoin="round" stroke-width="1"></path>
  <path d="M12.579 10.3c-0.338 0.017 -0.684 0.026 -1.036 0.026 -3.665 0 -6.636 -0.935 -6.636 -2.089 0 -1.074 2.58 -1.96 5.9 -2.075" fill="none" stroke="#0f1e2e" stroke-linecap="round" stroke-linejoin="round" stroke-width="1"></path>
  <path d="M0.662 8.475v10.546c0 2.436 5.047 4.41 11.272 4.41s11.272 -1.974 11.272 -4.41V8.475" fill="none" stroke="#0f1e2e" stroke-linecap="round" stroke-linejoin="round" stroke-width="1"></path>
  <path d="M22.126 6.053a46.842 46.842 0 0 1 -5.64 2.647 1.817 1.817 0 0 1 -2.126 -2.812 46.958 46.958 0 0 1 4.088 -4.7 3.051 3.051 0 1 1 3.678 4.868Z" fill="none" stroke="#0f1e2e" stroke-linecap="round" stroke-linejoin="round" stroke-width="1"></path>
  <path d="M6.706 18.285a5.079 2.393 0 1 0 10.158 0 5.079 2.393 0 1 0 -10.158 0" fill="none" stroke="#0f1e2e" stroke-linecap="round" stroke-linejoin="round" stroke-width="1"></path>
  <path d="M17.9413486213 5.3001502864a1.765 1.235 -35.522 1 0 2.87304047 -2.0509847531 1.765 1.235 -35.522 1 0 -2.87304047 2.0509847531" fill="none" stroke="#0f1e2e" stroke-linecap="round" stroke-linejoin="round" stroke-width="1"></path>
</svg>