<svg viewBox="0 0 24 24" xmlns="http://www.w3.org/2000/svg" id="Seafood-Fish--Streamline-Ultimate">
  <desc>
    Seafood Fish Streamline Icon: https://streamlinehq.com
  </desc>
  <path d="M22.856 1.128c0.916 0.917 1.548 7.991 -3.16 12.7a17.347 17.347 0 0 1 -11.111 4.743L5.412 15.4A17.614 17.614 0 0 1 10.17 4.3C14.828 -0.358 21.939 0.211 22.856 1.128Z" fill="none" stroke="#0f1e2e" stroke-linecap="round" stroke-linejoin="round" stroke-width="1"></path>
  <path d="m8.585 18.571 -2.1 4.309a1.121 1.121 0 0 1 -2.03 -0.052l-0.869 -2.1 -2.449 -1.168a1.121 1.121 0 0 1 -0.017 -2.014L5.412 15.4Z" fill="none" stroke="#0f1e2e" stroke-linecap="round" stroke-linejoin="round" stroke-width="1"></path>
  <path d="M20.963 12.338c-0.009 0.255 -0.2 3.378 -4.433 7.943a1.122 1.122 0 0 1 -1.619 0.028l-2.37 -2.392" fill="none" stroke="#0f1e2e" stroke-linecap="round" stroke-linejoin="round" stroke-width="1"></path>
  <path d="m5.793 12.609 -2.669 -2.67a1.123 1.123 0 0 1 -0.245 -1.219C3.448 7.336 5.2 4.474 10 4.47" fill="none" stroke="#0f1e2e" stroke-linecap="round" stroke-linejoin="round" stroke-width="1"></path>
  <path d="M17.272 4.266a1.121 1.121 0 1 1 -1.585 0 1.121 1.121 0 0 1 1.585 0Z" fill="none" stroke="#0f1e2e" stroke-linecap="round" stroke-linejoin="round" stroke-width="1"></path>
</svg>