<svg xmlns="http://www.w3.org/2000/svg" viewBox="0 0 24 24" id="Fish-Fatty-A">

  <path d="M4 12c1.8-2.4 4.4-3.8 7.4-3.9 3.1-.2 5.8.7 7.8 2.5l2.1-1.8-.8 2.8.8 2.8-2.1-1.8c-2 1.8-4.7 2.7-7.8 2.5-3-.1-5.6-1.5-7.4-3.9Z" stroke="#0f1e2e" stroke-width="1" stroke-linecap="round" stroke-linejoin="round" fill="none"/>
  <path d="M9 12h4.6" stroke="#0f1e2e" stroke-width="1" stroke-linecap="round" stroke-linejoin="round" fill="none"/>
  <path d="M15.4 9.8c.8.5 1.3 1.2 1.5 2.2-.2 1-.7 1.7-1.5 2.2" stroke="#0f1e2e" stroke-width="1" stroke-linecap="round" stroke-linejoin="round" fill="none"/>
  <path d="M6.6 10.7a.35.35 0 1 0 0 .7.35.35 0 0 0 0-.7" stroke="#0f1e2e" fill="#0f1e2e"/>

</svg>
