<svg id="Fitness-Protein--Streamline-Ultimate" xmlns="http://www.w3.org/2000/svg" viewBox="0 0 24 24">
  <desc>
    Fitness Protein Streamline Icon: https://streamlinehq.com
  </desc>
  <defs></defs>
  <title>fitness-protein</title>
  <path d="M6 5.5h12s4 0 4 4v10s0 4 -4 4H6s-4 0 -4 -4v-10s0 -4 4 -4" fill="none" stroke="#0f1e2e" stroke-linecap="round" stroke-linejoin="round" stroke-width="1"></path>
  <path d="M18 5.5v-4a1 1 0 0 0 -1 -1H7a1 1 0 0 0 -1 1v4" fill="none" stroke="#0f1e2e" stroke-linecap="round" stroke-linejoin="round" stroke-width="1"></path>
  <path d="m10 5.5 0 -5" fill="none" stroke="#0f1e2e" stroke-linecap="round" stroke-linejoin="round" stroke-width="1"></path>
  <path d="m14 5.5 0 -5" fill="none" stroke="#0f1e2e" stroke-linecap="round" stroke-linejoin="round" stroke-width="1"></path>
  <path d="m2 9.5 20 0" fill="none" stroke="#0f1e2e" stroke-linecap="round" stroke-linejoin="round" stroke-width="1"></path>
  <path d="m2 19.5 20 0" fill="none" stroke="#0f1e2e" stroke-linecap="round" stroke-linejoin="round" stroke-width="1"></path>
  <path d="m10 14.5 4 0" fill="none" stroke="#0f1e2e" stroke-linecap="round" stroke-linejoin="round" stroke-width="1"></path>
  <path d="M8 16.5H7a1 1 0 0 1 -1 -1v-2a1 1 0 0 1 1 -1h1" fill="none" stroke="#0f1e2e" stroke-linecap="round" stroke-linejoin="round" stroke-width="1"></path>
  <path d="M16 12.5h1a1 1 0 0 1 1 1v2a1 1 0 0 1 -1 1h-1" fill="none" stroke="#0f1e2e" stroke-linecap="round" stroke-linejoin="round" stroke-width="1"></path>
  <path d="M10 17a0.5 0.5 0 0 1 -0.5 0.5H9a1 1 0 0 1 -1 -1v-4a1 1 0 0 1 1 -1h0.5a0.5 0.5 0 0 1 0.5 0.5Z" fill="none" stroke="#0f1e2e" stroke-linecap="round" stroke-linejoin="round" stroke-width="1"></path>
  <path d="M16 16.5a1 1 0 0 1 -1 1h-0.5a0.5 0.5 0 0 1 -0.5 -0.5v-5a0.5 0.5 0 0 1 0.5 -0.5h0.5a1 1 0 0 1 1 1Z" fill="none" stroke="#0f1e2e" stroke-linecap="round" stroke-linejoin="round" stroke-width="1"></path>
</svg>