<svg viewBox="0 0 24 24" xmlns="http://www.w3.org/2000/svg" id="Barbecue-Steak--Streamline-Ultimate">
  <desc>
    Barbecue Steak Streamline Icon: https://streamlinehq.com
  </desc>
  <path d="M10.5 0.5a10 10 0 0 0 -10 10V19a4.5 4.5 0 0 0 9 0 4.5 4.5 0 0 1 4.5 -4.5h2.5a7 7 0 0 0 0 -14Z" fill="none" stroke="#0f1e2e" stroke-linecap="round" stroke-linejoin="round" stroke-width="1"></path>
  <path d="M11.5 3.5a8 8 0 0 0 -8 8V13A2.812 2.812 0 0 0 6 16c2 0 0.118 -4.5 7 -4.5h3.5a4 4 0 0 0 0 -8Z" fill="none" stroke="#0f1e2e" stroke-linecap="round" stroke-linejoin="round" stroke-width="1"></path>
  <path d="M4 19a1 1 0 1 0 2 0 1 1 0 1 0 -2 0Z" fill="none" stroke="#0f1e2e" stroke-linecap="round" stroke-linejoin="round" stroke-width="1"></path>
</svg>