<svg xmlns="http://www.w3.org/2000/svg" fill="none" viewBox="0 0 24 24" id="Meat--Streamline-Platinum" height="24" width="24">
  <desc>
    Meat Streamline Icon: https://streamlinehq.com
  </desc>
  <g id="meat">
    <path id="Vector" stroke="#000000" d="M0.5 6.5v3.923c0 4.423 3 6.077 3 6.077H9c1.5 3.5 4 5 4 5h6s3.5 -2.5 3.5 -8.5V9m0 0C22.5 3 19 0.5 19 0.5H3.5S0.5 2 0.5 6.423s3 6.077 3 6.077H9c1.5 3.5 4 5 4 5h6S22.5 15 22.5 9ZM18 3l-8 8m10.5 -2.5L14 15M10.5 2.5 4 9" stroke-width="1"></path>
  </g>
</svg>